<?xml version="1.0" encoding="UTF-8"?>
<svg xmlns="http://www.w3.org/2000/svg" xmlns:xlink="http://www.w3.org/1999/xlink" width="100px" height="100px" viewBox="0 0 100 100" version="1.1">
<g id="surface1">
<rect x="0" y="0" width="100" height="100" style="fill:rgb(59.607843%,0.392157%,0%);fill-opacity:1;stroke:none;"/>
<path style=" stroke:none;fill-rule:nonzero;fill:rgb(59.215686%,0.392157%,0%);fill-opacity:1;" d="M 48.4375 15.3125 L 51 15.3125 L 52.9375 15.4375 L 55 15.6875 L 56.75 16 L 58.625 16.4375 L 60.5625 17 L 62.3125 17.625 L 63.9375 18.3125 L 65.5 19.0625 L 66.9375 19.8125 L 68.375 20.6875 L 69.5 21.4375 L 70.375 22.0625 L 71.1875 22.6875 L 71.8125 23.1875 L 72.625 23.875 L 73.375 24.5625 L 74 25.125 L 75.3125 26.4375 L 75.75 26.9375 L 76.3125 27.5625 L 77 28.4375 L 77.75 29.375 L 78.625 30.625 L 79.3125 31.6875 L 80.0625 32.9375 L 80.875 34.4375 L 81.625 36 L 82.25 37.5 L 82.8125 39.0625 L 83.375 40.875 L 83.8125 42.625 L 84.25 45 L 84.5 47.125 L 84.625 49.25 L 84.625 51.1875 L 84.5 53.3125 L 84.25 55.375 L 84 56.875 L 83.5625 58.8125 L 83.0625 60.625 L 82.375 62.625 L 81.75 64.125 L 81 65.75 L 80.1875 67.3125 L 79.125 69.0625 L 78.3125 70.25 L 77.625 71.1875 L 77 72 L 76.3125 72.8125 L 75.5625 73.6875 L 74.625 74.6875 L 73.625 75.6875 L 73.125 76.125 L 72.4375 76.75 L 71.75 77.3125 L 70.875 78 L 69.6875 78.875 L 68.0625 79.9375 L 66.4375 80.875 L 64.75 81.75 L 63.0625 82.5 L 61.25 83.1875 L 59.5 83.75 L 57.5625 84.25 L 55.75 84.625 L 53.5 84.9375 L 52.125 85.0625 L 50.625 85.125 L 48.8125 85.125 L 46.5625 85 L 44.4375 84.75 L 42.375 84.375 L 39.875 83.75 L 37.625 83 L 35.625 82.1875 L 33.5625 81.1875 L 32.1875 80.4375 L 30.75 79.5625 L 29.75 78.875 L 28.8125 78.1875 L 28 77.5625 L 27.3125 77 L 26.4375 76.25 L 25.5 75.375 L 23.9375 73.8125 L 23.5 73.3125 L 22.75 72.4375 L 22.0625 71.5625 L 21.1875 70.375 L 20.0625 68.6875 L 19.25 67.3125 L 18.5 65.9375 L 17.6875 64.1875 L 17 62.5 L 16.25 60.3125 L 15.75 58.375 L 15.375 56.6875 L 15.0625 54.6875 L 14.875 52.75 L 14.8125 51.8125 L 14.8125 48.625 L 15 46.3125 L 15.3125 44.125 L 15.75 42 L 16.25 40.125 L 17.0625 37.75 L 17.875 35.8125 L 18.6875 34.125 L 19.5 32.6875 L 20.25 31.4375 L 20.875 30.5 L 21.5 29.625 L 22.3125 28.5625 L 22.875 27.875 L 23.625 27 L 24.5 26.0625 L 26.125 24.4375 L 26.625 24 L 27.5 23.25 L 28.4375 22.5 L 29.5625 21.6875 L 31.25 20.5625 L 32.1875 20 L 33.3125 19.375 L 34.375 18.8125 L 36.3125 17.9375 L 38.125 17.25 L 39.875 16.6875 L 41.8125 16.1875 L 43.625 15.8125 L 45.8125 15.5 L 47.1875 15.375 Z M 48.4375 15.3125 "/>
<path style=" stroke:none;fill-rule:nonzero;fill:rgb(59.607843%,0.392157%,0%);fill-opacity:1;" d="M 48.25 11 L 51.75 11 L 53.625 11.125 L 55.75 11.375 L 58.1875 11.8125 L 60.6875 12.4375 L 62.5 13 L 64.375 13.6875 L 66 14.375 L 67.8125 15.25 L 69.5625 16.1875 L 71 17.0625 L 72.5625 18.125 L 73.75 19 L 74.625 19.6875 L 75.5625 20.5 L 76.25 21.0625 L 77.0625 21.875 L 77.5625 22.3125 L 78.1875 22.9375 L 78.625 23.4375 L 79.5 24.375 L 80.0625 25.0625 L 80.75 25.875 L 81.625 27.0625 L 82.4375 28.1875 L 83.3125 29.5625 L 83.875 30.5 L 84.625 31.875 L 85.1875 32.9375 L 86.0625 34.875 L 86.75 36.625 L 87.5 38.875 L 88.0625 40.9375 L 88.5 43.0625 L 88.8125 45.0625 L 89 46.875 L 89.0625 47.6875 L 89.125 49.625 L 89.125 50.5 L 89.0625 52.5 L 88.8125 55.125 L 88.4375 57.5 L 87.875 60 L 87.3125 61.9375 L 86.625 63.9375 L 85.875 65.75 L 85.0625 67.5 L 84.3125 68.9375 L 83.4375 70.4375 L 82.6875 71.625 L 82 72.625 L 81.125 73.8125 L 80.4375 74.6875 L 79.6875 75.5625 L 79.125 76.25 L 78.5 76.875 L 78.0625 77.375 L 76.875 78.5625 L 76.375 79 L 75.5625 79.75 L 74.875 80.3125 L 73.875 81.125 L 72.75 81.9375 L 71.6875 82.6875 L 70.5 83.4375 L 69 84.3125 L 67.875 84.9375 L 66.4375 85.625 L 64.875 86.3125 L 63.0625 87 L 61.1875 87.625 L 59.0625 88.1875 L 56.9375 88.625 L 54.875 88.9375 L 53 89.125 L 52.125 89.1875 L 47.875 89.1875 L 45.6875 89 L 43.75 88.75 L 41.5 88.3125 L 39.25 87.75 L 37.4375 87.1875 L 35.5625 86.5 L 33.6875 85.6875 L 32 84.875 L 30.625 84.125 L 29.375 83.375 L 27.5 82.125 L 26.3125 81.25 L 25.4375 80.5625 L 24.75 80 L 24.125 79.4375 L 23.625 79 L 22.6875 78.125 L 21.3125 76.75 L 20.875 76.25 L 20.3125 75.625 L 19.75 74.9375 L 18.9375 73.9375 L 18.125 72.8125 L 17.25 71.5625 L 16.4375 70.25 L 15.6875 68.9375 L 14.8125 67.25 L 14.1875 65.9375 L 13.375 63.9375 L 12.8125 62.375 L 12.1875 60.25 L 11.8125 58.75 L 11.375 56.5 L 11.0625 54.1875 L 10.9375 52.6875 L 10.875 51.25 L 10.875 49 L 11 46.6875 L 11.25 44.5 L 11.6875 42 L 12.375 39.25 L 12.9375 37.4375 L 13.8125 35.125 L 14.75 33.0625 L 15.4375 31.6875 L 16.25 30.25 L 17.0625 28.9375 L 17.5625 28.1875 L 18.3125 27.125 L 19.0625 26.125 L 19.875 25.125 L 20.625 24.25 L 22 22.75 L 23.125 21.625 L 23.25 21.625 L 23.25 21.5 L 23.75 21.0625 L 24.375 20.5 L 25.0625 19.9375 L 26.0625 19.125 L 27.25 18.25 L 28.5 17.375 L 29.8125 16.5625 L 31.125 15.8125 L 32.375 15.125 L 34.125 14.3125 L 35.9375 13.5625 L 37.6875 12.9375 L 39.5 12.375 L 41.8125 11.8125 L 43.875 11.4375 L 46.3125 11.125 Z M 48.4375 15.3125 L 46.5 15.4375 L 44.375 15.6875 L 42.375 16.0625 L 40.8125 16.4375 L 39.0625 16.9375 L 37.4375 17.5 L 35.75 18.1875 L 33.75 19.125 L 32.375 19.875 L 30.9375 20.75 L 29.5625 21.6875 L 28.375 22.5625 L 27.375 23.375 L 26.5 24.125 L 25.5625 25 L 23.9375 26.625 L 23.5 27.125 L 22.6875 28.0625 L 21.875 29.125 L 21.125 30.125 L 20.5 31.0625 L 19.75 32.25 L 18.9375 33.6875 L 18.25 35 L 17.4375 36.8125 L 16.75 38.625 L 16.125 40.5625 L 15.625 42.5625 L 15.25 44.4375 L 14.9375 46.875 L 14.8125 48.625 L 14.8125 51.8125 L 15 54.125 L 15.3125 56.3125 L 15.6875 58.125 L 16.0625 59.625 L 16.5625 61.25 L 17.1875 63 L 17.9375 64.75 L 18.5625 66.0625 L 19.3125 67.4375 L 20.25 69 L 21.1875 70.375 L 22.0625 71.5625 L 22.9375 72.625 L 23.6875 73.5 L 24.4375 74.3125 L 26.0625 75.9375 L 26.5625 76.375 L 27.5 77.1875 L 28.5625 78 L 29.375 78.625 L 31.0625 79.75 L 32 80.3125 L 33.3125 81.0625 L 35.0625 81.9375 L 36.8125 82.6875 L 38.125 83.1875 L 40.125 83.8125 L 42.375 84.375 L 44.4375 84.75 L 46.5625 85 L 48.8125 85.125 L 50.625 85.125 L 52.125 85.0625 L 54.5 84.8125 L 56.375 84.5 L 58.375 84.0625 L 60.3125 83.5 L 62.125 82.875 L 63.9375 82.125 L 66 81.125 L 67.5625 80.25 L 68.75 79.5 L 69.9375 78.6875 L 70.9375 77.9375 L 71.8125 77.25 L 72.6875 76.5 L 73.4375 75.8125 L 74.0625 75.25 L 75.1875 74.125 L 75.625 73.625 L 76.1875 73 L 76.75 72.3125 L 77.5 71.375 L 78.3125 70.25 L 79.3125 68.75 L 79.875 67.8125 L 80.4375 66.8125 L 81.3125 65.125 L 82 63.5625 L 82.6875 61.75 L 83.25 60 L 83.75 58.0625 L 84.1875 55.875 L 84.4375 53.9375 L 84.5625 52.5 L 84.625 51.1875 L 84.625 49.25 L 84.5 47.125 L 84.25 45 L 83.8125 42.625 L 83.3125 40.625 L 82.5 38.125 L 81.8125 36.4375 L 81.0625 34.8125 L 80.1875 33.125 L 79.4375 31.875 L 78.875 31 L 78.1875 30 L 77.3125 28.8125 L 76.4375 27.75 L 75.6875 26.875 L 74.75 25.875 L 73.5625 24.6875 L 73.0625 24.25 L 72.375 23.625 L 71.6875 23.0625 L 70.5625 22.1875 L 69.5 21.4375 L 68.5625 20.8125 L 67.4375 20.125 L 66.125 19.375 L 64.25 18.4375 L 62.3125 17.625 L 60.375 16.9375 L 58.375 16.375 L 56.75 16 L 55 15.6875 L 52.9375 15.4375 L 51 15.3125 Z M 48.4375 15.3125 "/>
<path style=" stroke:none;fill-rule:nonzero;fill:rgb(59.607843%,0.392157%,0%);fill-opacity:1;" d="M 47.625 8.375 L 52.3125 8.375 L 54.5625 8.5625 L 56.5 8.8125 L 58.8125 9.25 L 60.625 9.6875 L 62.625 10.25 L 64.9375 11.0625 L 66.875 11.875 L 69 12.875 L 70.375 13.625 L 72.0625 14.625 L 73.9375 15.875 L 75.125 16.75 L 75.9375 17.375 L 76.75 18.0625 L 77.4375 18.625 L 78.375 19.5 L 79 20.0625 L 80.375 21.4375 L 80.8125 21.9375 L 81.5 22.6875 L 82.0625 23.375 L 82.9375 24.4375 L 83.8125 25.625 L 84.6875 26.875 L 85.4375 28.0625 L 86 29 L 86.8125 30.4375 L 87.875 32.5625 L 88.625 34.3125 L 89.3125 36.125 L 90 38.25 L 90.625 40.625 L 91.0625 42.8125 L 91.375 44.9375 L 91.5625 47 L 91.625 47.875 L 91.625 52.125 L 91.4375 54.4375 L 91.125 56.75 L 90.6875 59.0625 L 90.1875 61.0625 L 89.5 63.3125 L 88.9375 64.875 L 88.25 66.5625 L 87.4375 68.3125 L 86.75 69.6875 L 85.875 71.1875 L 85.125 72.4375 L 84.625 73.1875 L 83.75 74.4375 L 83.1875 75.1875 L 82.5 76.0625 L 81.9375 76.75 L 81.1875 77.625 L 80.4375 78.4375 L 79.5 79.4375 L 78.8125 80.125 L 78.3125 80.5625 L 77.4375 81.375 L 76.75 81.9375 L 75.9375 82.625 L 75.125 83.25 L 74 84.0625 L 72.125 85.3125 L 70.875 86.0625 L 69.3125 86.9375 L 67.5625 87.8125 L 65.6875 88.625 L 63.5 89.4375 L 61.5 90.0625 L 59.875 90.5 L 57.5 91 L 55 91.375 L 53 91.5625 L 52.125 91.625 L 47.875 91.625 L 45.5625 91.4375 L 43.25 91.125 L 41.1875 90.75 L 38.6875 90.125 L 36.5 89.4375 L 34.9375 88.875 L 33.4375 88.25 L 31.9375 87.5625 L 30.0625 86.625 L 28.5625 85.75 L 27.0625 84.8125 L 25.625 83.8125 L 24.3125 82.8125 L 23.3125 82 L 22.4375 81.25 L 21.625 80.5 L 20.875 79.8125 L 19.625 78.5625 L 19.1875 78.0625 L 18.5 77.3125 L 17.9375 76.625 L 17.25 75.8125 L 16.375 74.625 L 15.5625 73.5 L 14.75 72.25 L 13.8125 70.6875 L 13.0625 69.3125 L 12.5 68.25 L 11.625 66.3125 L 10.9375 64.5625 L 10.375 63 L 9.75 60.875 L 9.3125 59.125 L 8.9375 57.25 L 8.625 55.125 L 8.4375 53.1875 L 8.375 52.375 L 8.375 47.625 L 8.5625 45.4375 L 8.875 43.125 L 9.3125 40.875 L 9.8125 38.875 L 10.5 36.625 L 11.0625 35.0625 L 11.8125 33.25 L 12.6875 31.375 L 13.4375 29.9375 L 14.3125 28.4375 L 15.0625 27.25 L 15.5625 26.5 L 16.3125 25.4375 L 17.125 24.375 L 17.9375 23.375 L 18.625 22.5625 L 19.375 21.75 L 19.8125 21.25 L 21.625 19.4375 L 22.125 19 L 22.8125 18.375 L 23.5 17.8125 L 24.5 17 L 25.6875 16.125 L 27.0625 15.1875 L 28.4375 14.3125 L 30.1875 13.3125 L 32 12.375 L 33.8125 11.5625 L 35.75 10.8125 L 38 10.0625 L 40.0625 9.5 L 42.0625 9.0625 L 44.375 8.6875 L 46 8.5 Z M 48.25 11 L 46.3125 11.125 L 43.875 11.4375 L 41.8125 11.8125 L 39.0625 12.5 L 36.75 13.25 L 35 13.9375 L 33.3125 14.6875 L 32.3125 15.1875 L 30.75 16 L 29.1875 16.9375 L 27.875 17.8125 L 27 18.4375 L 26.25 19 L 25.375 19.6875 L 24.5625 20.375 L 23.25 21.5 L 23.25 21.625 L 23 21.75 L 21.5 23.25 L 21.0625 23.75 L 20.375 24.5 L 19.8125 25.1875 L 19 26.1875 L 18.125 27.375 L 17.3125 28.5625 L 16.5625 29.75 L 15.6875 31.25 L 14.75 33.0625 L 14 34.6875 L 13.1875 36.75 L 12.5 38.8125 L 11.875 41.1875 L 11.5 43 L 11.125 45.4375 L 10.9375 47.5 L 10.875 49 L 10.875 51.25 L 11 53.5 L 11.25 55.6875 L 11.625 57.875 L 12.0625 59.8125 L 12.6875 62 L 13.4375 64.125 L 14.0625 65.625 L 14.625 66.875 L 15.5 68.625 L 16.25 69.9375 L 16.9375 71.0625 L 17.6875 72.1875 L 18.4375 73.25 L 19.0625 74.0625 L 19.5625 74.6875 L 20.125 75.375 L 20.9375 76.3125 L 21.875 77.3125 L 23.25 78.6875 L 23.75 79.125 L 24.4375 79.75 L 25.125 80.3125 L 26.125 81.125 L 27.3125 82 L 29.1875 83.25 L 30.125 83.8125 L 31.1875 84.4375 L 33.125 85.4375 L 34.8125 86.1875 L 36.25 86.75 L 37.8125 87.3125 L 39.9375 87.9375 L 42.375 88.5 L 44.625 88.875 L 46.1875 89.0625 L 47.875 89.1875 L 52.125 89.1875 L 54.3125 89 L 56.25 88.75 L 58.5 88.3125 L 60.75 87.75 L 62.6875 87.125 L 64.25 86.5625 L 65.875 85.875 L 67.125 85.3125 L 68.3125 84.6875 L 69.6875 83.9375 L 71.3125 82.9375 L 72.3125 82.25 L 73.4375 81.4375 L 74.3125 80.75 L 75 80.1875 L 75.8125 79.5 L 76.75 78.625 L 77.25 78.1875 L 78.4375 77 L 78.875 76.5 L 79.625 75.6875 L 80.1875 75 L 81 74 L 81.875 72.8125 L 83.125 70.9375 L 83.875 69.6875 L 84.8125 68 L 85.75 66.0625 L 86.6875 63.75 L 87.4375 61.5 L 87.875 60 L 88.4375 57.5 L 88.8125 55.125 L 89.0625 52.5 L 89.125 50.5 L 89.125 49.625 L 89.0625 47.6875 L 88.875 45.5625 L 88.625 43.75 L 88.1875 41.5 L 87.75 39.75 L 87.0625 37.5 L 86.375 35.625 L 85.5625 33.75 L 84.875 32.3125 L 84.125 30.9375 L 83.625 30.0625 L 82.875 28.875 L 82.125 27.75 L 81.25 26.5625 L 80.625 25.75 L 79.9375 24.9375 L 79.375 24.25 L 78.4375 23.25 L 77.6875 22.4375 L 77.1875 21.9375 L 76.6875 21.5 L 76.1875 21 L 75.5 20.4375 L 74.875 19.875 L 74 19.1875 L 72.75 18.25 L 70.6875 16.875 L 69.3125 16.0625 L 67.8125 15.25 L 66.4375 14.5625 L 64.6875 13.8125 L 62.5 13 L 60.6875 12.4375 L 58.1875 11.8125 L 55.75 11.375 L 53.625 11.125 L 51.75 11 Z M 48.25 11 "/>
<path style=" stroke:none;fill-rule:nonzero;fill:rgb(99.215686%,99.215686%,98.823529%);fill-opacity:1;" d="M 42.875 39.375 L 43.0625 39.375 L 43 40 L 42.625 42.25 L 42.6875 42.625 L 43.25 42.625 L 43.875 42.375 L 44.0625 42.4375 L 44.125 42.8125 L 42.75 43.4375 L 40.875 44.1875 L 40.8125 44 L 41.0625 42.125 L 41.0625 41.125 L 40.75 40.8125 L 39.875 40.8125 L 38.75 41.1875 L 37.5625 41.875 L 36.75 42.5625 L 36.25 43.125 L 35.875 43.875 L 35.75 44.375 L 35.75 45.0625 L 35.9375 45.4375 L 36.25 45.625 L 36.9375 45.75 L 38.5 45.8125 L 38.75 45.8125 L 38.6875 44.5 L 38.5 43.5 L 39 43.6875 L 39.4375 44.1875 L 39.625 44.6875 L 39.6875 44.9375 L 39.75 45.8125 L 42.6875 45.8125 L 43.5625 46 L 44.1875 46.3125 L 44.6875 46.75 L 45.0625 47.375 L 45.25 48.0625 L 45.25 49.375 L 45.0625 50.4375 L 44.75 51.375 L 44.25 52.375 L 43.6875 53.25 L 43.25 53.8125 L 42.6875 54.4375 L 42.0625 55.0625 L 41.1875 55.6875 L 40.25 56.1875 L 39.125 56.5625 L 38.375 56.6875 L 36.5625 56.6875 L 35.8125 56.5 L 35.0625 56.1875 L 34.375 55.6875 L 33.875 55.1875 L 33.625 54.8125 L 33.3125 54.875 L 32.3125 55.4375 L 31.0625 55.9375 L 29.75 56.3125 L 28.6875 56.5 L 28.125 56.5625 L 26.375 56.5625 L 25.125 56.375 L 23.9375 56.0625 L 22.75 55.5625 L 21.8125 55 L 21.1875 54.5 L 20.5625 53.9375 L 19.9375 53.1875 L 19.4375 52.375 L 19 51.4375 L 18.625 50.125 L 18.4375 48.875 L 18.4375 46.5 L 18.625 45.3125 L 18.9375 44.1875 L 19.375 43.1875 L 19.9375 42.3125 L 20.625 41.5 L 21.3125 40.875 L 22 40.4375 L 22.9375 40 L 24.0625 39.75 L 26 39.75 L 27.1875 40 L 28.125 40.375 L 28.9375 40.8125 L 29.75 41.4375 L 30.625 42.3125 L 31.3125 43.3125 L 31.8125 44.3125 L 32.4375 45.9375 L 33 47.75 L 34 51.3125 L 34.5625 53 L 34.625 53.3125 L 35 53.125 L 35.75 52.5 L 36.3125 51.8125 L 37 50.875 L 37.75 49.5625 L 38.25 48.375 L 38.5625 47.3125 L 36.75 47.3125 L 35.4375 47.125 L 34.875 46.875 L 34.5625 46.625 L 34.375 46.3125 L 34.3125 45.625 L 34.4375 44.9375 L 34.9375 43.9375 L 35.375 43.25 L 36 42.5625 L 36.375 42.125 L 37.0625 41.5625 L 37.875 41 L 38.9375 40.4375 L 40.125 40 L 41.875 39.5625 Z M 42.875 39.375 "/>
<path style=" stroke:none;fill-rule:nonzero;fill:rgb(99.215686%,99.215686%,98.823529%);fill-opacity:1;" d="M 47.625 8.375 L 52.3125 8.375 L 54.5625 8.5625 L 56.5 8.8125 L 58.8125 9.25 L 60.625 9.6875 L 62.625 10.25 L 64.9375 11.0625 L 66.875 11.875 L 69 12.875 L 70.375 13.625 L 72.0625 14.625 L 73.9375 15.875 L 75.125 16.75 L 75.9375 17.375 L 76.75 18.0625 L 77.4375 18.625 L 78.375 19.5 L 79 20.0625 L 80.375 21.4375 L 80.8125 21.9375 L 81.5 22.6875 L 82.0625 23.375 L 82.9375 24.4375 L 83.8125 25.625 L 84.6875 26.875 L 85.4375 28.0625 L 86 29 L 86.8125 30.4375 L 87.875 32.5625 L 88.625 34.3125 L 89.3125 36.125 L 90 38.25 L 90.625 40.625 L 91.0625 42.8125 L 91.375 44.9375 L 91.5625 47 L 91.625 47.875 L 91.625 52.125 L 91.4375 54.4375 L 91.125 56.75 L 90.6875 59.0625 L 90.1875 61.0625 L 89.5 63.3125 L 88.9375 64.875 L 88.25 66.5625 L 87.4375 68.3125 L 86.75 69.6875 L 85.875 71.1875 L 85.125 72.4375 L 84.625 73.1875 L 83.75 74.4375 L 83.1875 75.1875 L 82.5 76.0625 L 81.9375 76.75 L 81.1875 77.625 L 80.4375 78.4375 L 79.5 79.4375 L 78.8125 80.125 L 78.3125 80.5625 L 77.4375 81.375 L 76.75 81.9375 L 75.9375 82.625 L 75.125 83.25 L 74 84.0625 L 72.125 85.3125 L 70.875 86.0625 L 69.3125 86.9375 L 67.5625 87.8125 L 65.6875 88.625 L 63.5 89.4375 L 61.5 90.0625 L 59.875 90.5 L 57.5 91 L 55 91.375 L 53 91.5625 L 52.125 91.625 L 47.875 91.625 L 45.5625 91.4375 L 43.25 91.125 L 41.1875 90.75 L 38.6875 90.125 L 36.5 89.4375 L 34.9375 88.875 L 33.4375 88.25 L 31.9375 87.5625 L 30.0625 86.625 L 28.5625 85.75 L 27.0625 84.8125 L 25.625 83.8125 L 24.3125 82.8125 L 23.3125 82 L 22.4375 81.25 L 21.625 80.5 L 20.875 79.8125 L 19.625 78.5625 L 19.1875 78.0625 L 18.5 77.3125 L 17.9375 76.625 L 17.25 75.8125 L 16.375 74.625 L 15.5625 73.5 L 14.75 72.25 L 13.8125 70.6875 L 13.0625 69.3125 L 12.5 68.25 L 11.625 66.3125 L 10.9375 64.5625 L 10.375 63 L 9.75 60.875 L 9.3125 59.125 L 8.9375 57.25 L 8.625 55.125 L 8.4375 53.1875 L 8.375 52.375 L 8.375 47.625 L 8.5625 45.4375 L 8.875 43.125 L 9.3125 40.875 L 9.8125 38.875 L 10.5 36.625 L 11.0625 35.0625 L 11.8125 33.25 L 12.6875 31.375 L 13.4375 29.9375 L 14.3125 28.4375 L 15.0625 27.25 L 15.5625 26.5 L 16.3125 25.4375 L 17.125 24.375 L 17.9375 23.375 L 18.625 22.5625 L 19.375 21.75 L 19.8125 21.25 L 21.625 19.4375 L 22.125 19 L 22.8125 18.375 L 23.5 17.8125 L 24.5 17 L 25.6875 16.125 L 27.0625 15.1875 L 28.4375 14.3125 L 30.1875 13.3125 L 32 12.375 L 33.8125 11.5625 L 35.75 10.8125 L 38 10.0625 L 40.0625 9.5 L 42.0625 9.0625 L 44.375 8.6875 L 46 8.5 Z M 48.75 9 L 46.5 9.125 L 44.25 9.375 L 42.0625 9.75 L 39.8125 10.25 L 37.625 10.875 L 35.625 11.5625 L 33.9375 12.25 L 32.6875 12.8125 L 31.125 13.5625 L 29.75 14.3125 L 28.6875 14.9375 L 27.125 15.9375 L 26.25 16.5625 L 25.0625 17.4375 L 24.1875 18.125 L 22.4375 19.625 L 22 20.0625 L 21.5 20.5 L 20.125 21.875 L 19.6875 22.375 L 19 23.125 L 18.4375 23.8125 L 17.8125 24.5625 L 16.875 25.8125 L 16.25 26.6875 L 15.5 27.8125 L 14.6875 29.125 L 13.9375 30.4375 L 13 32.25 L 12.1875 34.0625 L 11.3125 36.3125 L 10.625 38.4375 L 10.125 40.3125 L 9.6875 42.375 L 9.375 44.25 L 9.125 46.5 L 9 48.75 L 9 51.25 L 9.125 53.5 L 9.375 55.75 L 9.8125 58.25 L 10.25 60.1875 L 10.8125 62.125 L 11.5 64.1875 L 12.25 66.0625 L 13 67.6875 L 13.5 68.75 L 14.25 70.125 L 15.0625 71.5 L 15.75 72.5625 L 16.5625 73.75 L 17.4375 74.9375 L 18.25 75.9375 L 18.9375 76.75 L 19.6875 77.625 L 20.3125 78.25 L 20.75 78.75 L 21.625 79.625 L 22.125 80.0625 L 22.5625 80.5 L 23.25 81.0625 L 23.875 81.625 L 24.75 82.3125 L 25.5625 82.9375 L 26.6875 83.75 L 28.125 84.6875 L 29.6875 85.625 L 31.0625 86.375 L 32.9375 87.3125 L 35.1875 88.25 L 36.875 88.875 L 38.9375 89.5 L 41.1875 90.0625 L 43.5 90.5 L 46 90.8125 L 47.5625 90.9375 L 49.375 91 L 50.625 91 L 53.3125 90.875 L 55.625 90.625 L 58.1875 90.1875 L 60.125 89.75 L 62.3125 89.125 L 64.3125 88.4375 L 66.1875 87.6875 L 67.9375 86.875 L 69.3125 86.1875 L 70.75 85.375 L 72.375 84.375 L 73.375 83.6875 L 74.5 82.875 L 75.375 82.1875 L 76 81.6875 L 76.8125 81 L 78.0625 79.875 L 78.625 79.3125 L 79.125 78.875 L 79.8125 78.125 L 80.3125 77.625 L 80.75 77.125 L 81.5 76.25 L 82.3125 75.25 L 83.25 74 L 84.125 72.75 L 84.875 71.5625 L 85.6875 70.1875 L 86.4375 68.8125 L 87.1875 67.3125 L 88 65.4375 L 88.8125 63.25 L 89.375 61.5 L 89.9375 59.3125 L 90.3125 57.5625 L 90.6875 55.125 L 90.875 53.3125 L 90.9375 52.4375 L 91 50.6875 L 91 49.375 L 90.9375 47.5625 L 90.75 45.3125 L 90.4375 43.125 L 89.9375 40.625 L 89.375 38.5 L 88.8125 36.75 L 88.375 35.5 L 87.5 33.375 L 86.625 31.5625 L 85.75 29.875 L 84.8125 28.3125 L 83.5625 26.4375 L 82.75 25.3125 L 82.0625 24.4375 L 81.375 23.625 L 80.8125 22.9375 L 79.0625 21.0625 L 78.375 20.375 L 77.875 19.9375 L 77.4375 19.5 L 76.75 18.9375 L 76.125 18.375 L 75.25 17.6875 L 74.1875 16.875 L 73.125 16.125 L 71.6875 15.1875 L 70.3125 14.375 L 69.1875 13.75 L 68.25 13.25 L 66.5 12.4375 L 64.5 11.625 L 62.5625 10.9375 L 60.1875 10.25 L 57.9375 9.75 L 55.75 9.375 L 53.5 9.125 L 51.25 9 Z M 48.75 9 "/>
<path style=" stroke:none;fill-rule:nonzero;fill:rgb(99.215686%,99.215686%,98.823529%);fill-opacity:1;" d="M 48.75 10.3125 L 51.1875 10.3125 L 53.375 10.4375 L 55.625 10.6875 L 57.5 11 L 59.25 11.375 L 61.375 11.9375 L 63.625 12.6875 L 65.375 13.375 L 67.0625 14.125 L 68.6875 14.9375 L 70.125 15.75 L 71.75 16.75 L 72.75 17.4375 L 73.875 18.25 L 74.75 18.9375 L 75.4375 19.5 L 76.3125 20.25 L 77.125 21 L 77.875 21.6875 L 78.875 22.6875 L 79.3125 23.1875 L 80.0625 24 L 80.625 24.6875 L 81.3125 25.5 L 82.1875 26.6875 L 82.9375 27.75 L 83.75 29 L 84.5 30.25 L 85.25 31.625 L 85.8125 32.6875 L 86.5 34.1875 L 87.375 36.375 L 88.125 38.625 L 88.625 40.4375 L 89.125 42.75 L 89.4375 44.6875 L 89.625 46.3125 L 89.75 48 L 89.75 52.125 L 89.5625 54.4375 L 89.3125 56.375 L 88.9375 58.375 L 88.5 60.25 L 87.875 62.375 L 87.3125 64 L 86.625 65.6875 L 86.0625 66.9375 L 85.3125 68.5 L 84.5 69.9375 L 83.6875 71.3125 L 82.6875 72.8125 L 81.875 73.9375 L 81.1875 74.8125 L 80.625 75.5 L 79.9375 76.3125 L 79.25 77.0625 L 79.1875 77.1875 L 79.0625 77.1875 L 78.9375 77.4375 L 77.1875 79.1875 L 76.6875 79.625 L 75.9375 80.3125 L 75.25 80.875 L 74.3125 81.625 L 73.125 82.5 L 71.0625 83.875 L 69.8125 84.625 L 68.4375 85.375 L 67.4375 85.875 L 65.875 86.625 L 64 87.375 L 61.625 88.1875 L 59.3125 88.8125 L 56.875 89.3125 L 54.8125 89.625 L 52.75 89.8125 L 51.5 89.875 L 48.4375 89.875 L 46.375 89.75 L 44.25 89.5 L 42.125 89.125 L 40.4375 88.75 L 38.8125 88.3125 L 37 87.75 L 34.875 86.9375 L 33.3125 86.25 L 31.75 85.5 L 30.375 84.75 L 28.8125 83.8125 L 27.125 82.6875 L 25.9375 81.8125 L 25.0625 81.125 L 24.25 80.4375 L 23.5625 79.875 L 22.5 78.875 L 20.6875 77.0625 L 20.25 76.5625 L 19.5 75.6875 L 18.625 74.625 L 17.875 73.625 L 17.125 72.5625 L 16.5 71.625 L 15.8125 70.5 L 15.0625 69.1875 L 14.3125 67.75 L 13.5625 66.1875 L 12.75 64.1875 L 12.1875 62.625 L 11.625 60.75 L 11.125 58.75 L 10.75 56.8125 L 10.4375 54.5625 L 10.25 52.4375 L 10.1875 50.625 L 10.1875 49.5 L 10.25 47.75 L 10.4375 45.625 L 10.8125 43 L 11.25 40.875 L 11.8125 38.8125 L 12.5625 36.5 L 13.25 34.75 L 14.1875 32.6875 L 14.8125 31.4375 L 15.625 30 L 16.5 28.5625 L 17.4375 27.1875 L 18.3125 26 L 19 25.125 L 19.75 24.25 L 20.3125 23.5625 L 20.8125 23.0625 L 21.25 22.5625 L 22.8125 21 L 23.3125 20.5625 L 24 19.9375 L 24.6875 19.375 L 25.6875 18.5625 L 26.875 17.6875 L 28.0625 16.875 L 29.25 16.125 L 30.75 15.25 L 32.4375 14.375 L 34 13.625 L 35.6875 12.9375 L 38 12.125 L 40.1875 11.5 L 42.5 11 L 44.375 10.6875 L 46.625 10.4375 Z M 48.25 11 L 46.3125 11.125 L 43.875 11.4375 L 41.8125 11.8125 L 39.0625 12.5 L 36.75 13.25 L 35 13.9375 L 33.3125 14.6875 L 32.3125 15.1875 L 30.75 16 L 29.1875 16.9375 L 27.875 17.8125 L 27 18.4375 L 26.25 19 L 25.375 19.6875 L 24.5625 20.375 L 23.25 21.5 L 23.25 21.625 L 23 21.75 L 21.5 23.25 L 21.0625 23.75 L 20.375 24.5 L 19.8125 25.1875 L 19 26.1875 L 18.125 27.375 L 17.3125 28.5625 L 16.5625 29.75 L 15.6875 31.25 L 14.75 33.0625 L 14 34.6875 L 13.1875 36.75 L 12.5 38.8125 L 11.875 41.1875 L 11.5 43 L 11.125 45.4375 L 10.9375 47.5 L 10.875 49 L 10.875 51.25 L 11 53.5 L 11.25 55.6875 L 11.625 57.875 L 12.0625 59.8125 L 12.6875 62 L 13.4375 64.125 L 14.0625 65.625 L 14.625 66.875 L 15.5 68.625 L 16.25 69.9375 L 16.9375 71.0625 L 17.6875 72.1875 L 18.4375 73.25 L 19.0625 74.0625 L 19.5625 74.6875 L 20.125 75.375 L 20.9375 76.3125 L 21.875 77.3125 L 23.25 78.6875 L 23.75 79.125 L 24.4375 79.75 L 25.125 80.3125 L 26.125 81.125 L 27.3125 82 L 29.1875 83.25 L 30.125 83.8125 L 31.1875 84.4375 L 33.125 85.4375 L 34.8125 86.1875 L 36.25 86.75 L 37.8125 87.3125 L 39.9375 87.9375 L 42.375 88.5 L 44.625 88.875 L 46.1875 89.0625 L 47.875 89.1875 L 52.125 89.1875 L 54.3125 89 L 56.25 88.75 L 58.5 88.3125 L 60.75 87.75 L 62.6875 87.125 L 64.25 86.5625 L 65.875 85.875 L 67.125 85.3125 L 68.3125 84.6875 L 69.6875 83.9375 L 71.3125 82.9375 L 72.3125 82.25 L 73.4375 81.4375 L 74.3125 80.75 L 75 80.1875 L 75.8125 79.5 L 76.75 78.625 L 77.25 78.1875 L 78.4375 77 L 78.875 76.5 L 79.625 75.6875 L 80.1875 75 L 81 74 L 81.875 72.8125 L 83.125 70.9375 L 83.875 69.6875 L 84.8125 68 L 85.75 66.0625 L 86.6875 63.75 L 87.4375 61.5 L 87.875 60 L 88.4375 57.5 L 88.8125 55.125 L 89.0625 52.5 L 89.125 50.5 L 89.125 49.625 L 89.0625 47.6875 L 88.875 45.5625 L 88.625 43.75 L 88.1875 41.5 L 87.75 39.75 L 87.0625 37.5 L 86.375 35.625 L 85.5625 33.75 L 84.875 32.3125 L 84.125 30.9375 L 83.625 30.0625 L 82.875 28.875 L 82.125 27.75 L 81.25 26.5625 L 80.625 25.75 L 79.9375 24.9375 L 79.375 24.25 L 78.4375 23.25 L 77.6875 22.4375 L 77.1875 21.9375 L 76.6875 21.5 L 76.1875 21 L 75.5 20.4375 L 74.875 19.875 L 74 19.1875 L 72.75 18.25 L 70.6875 16.875 L 69.3125 16.0625 L 67.8125 15.25 L 66.4375 14.5625 L 64.6875 13.8125 L 62.5 13 L 60.6875 12.4375 L 58.1875 11.8125 L 55.75 11.375 L 53.625 11.125 L 51.75 11 Z M 48.25 11 "/>
<path style=" stroke:none;fill-rule:nonzero;fill:rgb(59.607843%,0.392157%,0%);fill-opacity:1;" d="M 24.25 40.3125 L 25.1875 40.3125 L 26.1875 40.5 L 27 40.8125 L 27.75 41.25 L 28.375 41.8125 L 28.875 42.3125 L 29.5625 43.3125 L 30.3125 44.75 L 30.875 46.1875 L 31.5 48.125 L 32.625 52.3125 L 33.25 53.9375 L 33.375 54.25 L 32.1875 54.875 L 31 55.3125 L 29.625 55.625 L 29.1875 55.6875 L 27.125 55.6875 L 25.875 55.4375 L 24.9375 55.125 L 23.875 54.625 L 22.9375 54 L 22.0625 53.25 L 21.375 52.5 L 20.8125 51.6875 L 20.3125 50.8125 L 19.8125 49.5625 L 19.5 48.3125 L 19.375 47.4375 L 19.375 45.8125 L 19.5625 44.5625 L 19.875 43.5625 L 20.375 42.5625 L 20.875 41.875 L 21.3125 41.4375 L 21.9375 41 L 22.5625 40.6875 L 23.375 40.4375 Z M 24.25 40.3125 "/>
<path style=" stroke:none;fill-rule:nonzero;fill:rgb(99.215686%,99.215686%,98.823529%);fill-opacity:1;" d="M 48.4375 15.3125 L 51 15.3125 L 52.9375 15.4375 L 55 15.6875 L 56.75 16 L 58.625 16.4375 L 60.5625 17 L 62.3125 17.625 L 63.9375 18.3125 L 65.5 19.0625 L 66.9375 19.8125 L 68.375 20.6875 L 69.5 21.4375 L 70.375 22.0625 L 71.1875 22.6875 L 71.8125 23.1875 L 72.625 23.875 L 73.375 24.5625 L 74 25.125 L 75.3125 26.4375 L 75.75 26.9375 L 76.3125 27.5625 L 77 28.4375 L 77.75 29.375 L 78.625 30.625 L 79.3125 31.6875 L 80.0625 32.9375 L 80.875 34.4375 L 81.625 36 L 82.25 37.5 L 82.8125 39.0625 L 83.375 40.875 L 83.8125 42.625 L 84.25 45 L 84.5 47.125 L 84.625 49.25 L 84.625 51.1875 L 84.5 53.3125 L 84.25 55.375 L 84 56.875 L 83.5625 58.8125 L 83.0625 60.625 L 82.375 62.625 L 81.75 64.125 L 81 65.75 L 80.1875 67.3125 L 79.125 69.0625 L 78.3125 70.25 L 77.625 71.1875 L 77 72 L 76.3125 72.8125 L 75.5625 73.6875 L 74.625 74.6875 L 73.625 75.6875 L 73.125 76.125 L 72.4375 76.75 L 71.75 77.3125 L 70.875 78 L 69.6875 78.875 L 68.0625 79.9375 L 66.4375 80.875 L 64.75 81.75 L 63.0625 82.5 L 61.25 83.1875 L 59.5 83.75 L 57.5625 84.25 L 55.75 84.625 L 53.5 84.9375 L 52.125 85.0625 L 50.625 85.125 L 48.8125 85.125 L 46.5625 85 L 44.4375 84.75 L 42.375 84.375 L 39.875 83.75 L 37.625 83 L 35.625 82.1875 L 33.5625 81.1875 L 32.1875 80.4375 L 30.75 79.5625 L 29.75 78.875 L 28.8125 78.1875 L 28 77.5625 L 27.3125 77 L 26.4375 76.25 L 25.5 75.375 L 23.9375 73.8125 L 23.5 73.3125 L 22.75 72.4375 L 22.0625 71.5625 L 21.1875 70.375 L 20.0625 68.6875 L 19.25 67.3125 L 18.5 65.9375 L 17.6875 64.1875 L 17 62.5 L 16.25 60.3125 L 15.75 58.375 L 15.375 56.6875 L 15.0625 54.6875 L 14.875 52.75 L 14.8125 51.8125 L 14.8125 48.625 L 15 46.3125 L 15.3125 44.125 L 15.75 42 L 16.25 40.125 L 17.0625 37.75 L 17.875 35.8125 L 18.6875 34.125 L 19.5 32.6875 L 20.25 31.4375 L 20.875 30.5 L 21.5 29.625 L 22.3125 28.5625 L 22.875 27.875 L 23.625 27 L 24.5 26.0625 L 26.125 24.4375 L 26.625 24 L 27.5 23.25 L 28.4375 22.5 L 29.5625 21.6875 L 31.25 20.5625 L 32.1875 20 L 33.3125 19.375 L 34.375 18.8125 L 36.3125 17.9375 L 38.125 17.25 L 39.875 16.6875 L 41.8125 16.1875 L 43.625 15.8125 L 45.8125 15.5 L 47.1875 15.375 Z M 48 16 L 45.75 16.1875 L 43.5625 16.5 L 41.3125 17 L 39.6875 17.4375 L 37.5 18.1875 L 36 18.8125 L 35 19.25 L 34 19.75 L 32.625 20.5 L 31 21.5 L 29.75 22.375 L 29 22.9375 L 28.125 23.625 L 27.3125 24.3125 L 26.6875 24.875 L 26.1875 25.3125 L 24.4375 27.0625 L 23.875 27.75 L 23.25 28.4375 L 22.5625 29.3125 L 21.6875 30.5 L 20.8125 31.8125 L 19.875 33.375 L 18.9375 35.125 L 18.25 36.625 L 17.4375 38.6875 L 16.8125 40.625 L 16.375 42.25 L 16 44.0625 L 15.6875 46.125 L 15.5 48.25 L 15.5 52.0625 L 15.6875 54.3125 L 16 56.375 L 16.375 58.1875 L 17 60.4375 L 17.6875 62.4375 L 18.375 64.0625 L 18.8125 65.0625 L 19.4375 66.25 L 20.1875 67.625 L 20.9375 68.8125 L 21.875 70.1875 L 22.6875 71.25 L 23.375 72.125 L 23.9375 72.75 L 24.375 73.25 L 24.5625 73.5 L 24.6875 73.5 L 24.8125 73.75 L 26.4375 75.375 L 26.9375 75.8125 L 27.8125 76.5625 L 28.8125 77.375 L 29.9375 78.1875 L 31.625 79.3125 L 33.125 80.1875 L 34.5625 80.9375 L 36 81.625 L 37.875 82.375 L 39.9375 83.0625 L 42.0625 83.625 L 44 84 L 46.3125 84.3125 L 48.125 84.4375 L 51.375 84.4375 L 53.625 84.25 L 55.375 84 L 57.3125 83.625 L 59.5 83.0625 L 62.0625 82.1875 L 63.8125 81.4375 L 65.375 80.6875 L 66.875 79.875 L 68.1875 79.0625 L 68.9375 78.5625 L 70 77.8125 L 70.8125 77.1875 L 71.5 76.625 L 72.3125 75.9375 L 73.0625 75.25 L 73.875 74.5 L 74.5 73.875 L 74.9375 73.375 L 75.6875 72.5625 L 76.25 71.875 L 76.9375 71 L 77.8125 69.8125 L 78.4375 68.875 L 79.25 67.5625 L 79.875 66.4375 L 80.625 65 L 81.375 63.3125 L 82 61.6875 L 82.625 59.75 L 83.1875 57.5625 L 83.625 55.125 L 83.875 52.8125 L 83.9375 51.6875 L 83.9375 48.6875 L 83.8125 46.9375 L 83.5 44.5625 L 83.125 42.625 L 82.75 41.125 L 82.1875 39.3125 L 81.75 38.0625 L 81 36.25 L 80 34.1875 L 79.125 32.625 L 78.1875 31.1875 L 77.5 30.1875 L 76.5 28.875 L 75.8125 28.0625 L 75.0625 27.1875 L 74.0625 26.125 L 73.1875 25.25 L 72.6875 24.8125 L 72 24.1875 L 71.3125 23.625 L 70.1875 22.75 L 69.0625 21.9375 L 68 21.25 L 66.75 20.5 L 65.625 19.875 L 64 19.0625 L 62.0625 18.25 L 59.9375 17.5 L 57.625 16.875 L 55.8125 16.5 L 54.25 16.25 L 52.4375 16.0625 L 51.4375 16 Z M 48 16 "/>
<path style=" stroke:none;fill-rule:nonzero;fill:rgb(99.215686%,99.215686%,98.823529%);fill-opacity:1;" d="M 50.4375 57.25 L 51.3125 57.25 L 52 57.4375 L 52.5625 57.875 L 52.8125 58.25 L 52.9375 58.75 L 52.9375 59.25 L 52.8125 59.8125 L 52.5 60.4375 L 51.9375 61.125 L 51.0625 61.8125 L 50.1875 62.3125 L 49.1875 62.6875 L 48.0625 63 L 47.3125 64 L 46.5 65 L 45.9375 65.625 L 45.5 66.125 L 44.9375 66.75 L 44 67.75 L 43.125 68.625 L 42.8125 68.8125 L 42.75 66.3125 L 42.5625 64.25 L 42.4375 63.5625 L 41.875 64.25 L 41.0625 65.1875 L 40.375 66.0625 L 39.75 66.8125 L 39.125 67.625 L 38.3125 68.625 L 38.1875 68.75 L 38.0625 65.6875 L 37.8125 62.5 L 37.6875 61.75 L 37.625 61.5 L 37.125 61.5 L 36.875 61.625 L 36.6875 61.625 L 36.625 61.375 L 37.1875 61 L 38.1875 60.4375 L 38.5625 60.25 L 38.75 61.375 L 38.9375 63.375 L 39 64.5625 L 39.0625 67.0625 L 39.625 66.4375 L 40.3125 65.5625 L 41.125 64.5625 L 41.875 63.6875 L 42.3125 63.1875 L 42.375 62.9375 L 41.5 63.0625 L 40.875 63.3125 L 40.5625 63.5625 L 40.25 64.1875 L 40.125 64.6875 L 39.9375 64.5625 L 39.9375 63.9375 L 40.25 63.375 L 40.9375 62.75 L 41.6875 62.375 L 42.1875 62.3125 L 41.8125 61.3125 L 41.3125 60.4375 L 40.625 59.625 L 40 59.0625 L 39.1875 58.5625 L 38.3125 58.1875 L 37.3125 57.9375 L 36.6875 57.875 L 35.625 57.875 L 34.6875 58 L 33.625 58.3125 L 32.8125 58.75 L 32.25 59.1875 L 31.9375 59.4375 L 31.3125 60.25 L 30.875 61.125 L 30.625 62.0625 L 30.5625 62.6875 L 30.5625 63.375 L 30.6875 64.25 L 30.9375 65.0625 L 31.3125 65.8125 L 31.75 66.375 L 32.125 66.8125 L 32.9375 67.375 L 33.5625 67.6875 L 34.4375 67.9375 L 35 68 L 36.1875 68 L 36.125 68.1875 L 35.125 68.375 L 33.875 68.375 L 32.9375 68.1875 L 32.1875 67.875 L 31.5 67.4375 L 31.125 67.125 L 31.125 67 L 31 67 L 30.375 66.1875 L 29.9375 65.1875 L 29.75 64.3125 L 29.75 62.75 L 29.9375 61.8125 L 30.25 60.9375 L 30.75 60.125 L 31.25 59.5 L 31.75 59.0625 L 32.375 58.5625 L 33.25 58.0625 L 34.4375 57.625 L 35.375 57.4375 L 36 57.375 L 37.5 57.375 L 38.6875 57.5625 L 39.8125 57.9375 L 40.5 58.3125 L 41.25 58.875 L 41.8125 59.4375 L 42.375 60.25 L 42.875 61.25 L 43.1875 62.1875 L 45.4375 59.9375 L 46.125 59.375 L 47.0625 58.625 L 48.0625 58 L 49.0625 57.5625 L 49.9375 57.3125 Z M 50.4375 57.25 "/>
<path style=" stroke:none;fill-rule:nonzero;fill:rgb(59.607843%,0.392157%,0%);fill-opacity:1;" d="M 39.5 47.3125 L 41.5625 47.3125 L 42.5625 47.5 L 43.3125 47.875 L 43.6875 48.375 L 43.875 48.8125 L 43.9375 49.125 L 43.9375 50.5625 L 43.75 51.5 L 43.375 52.5 L 42.875 53.375 L 42.1875 54.1875 L 41.5 54.875 L 40.875 55.3125 L 39.875 55.8125 L 39.3125 56 L 38.5 56.125 L 37.625 56.125 L 36.75 55.9375 L 36.0625 55.5625 L 35.625 55.125 L 35.0625 54.25 L 34.875 53.8125 L 35.5 53.3125 L 36.125 52.75 L 36.875 52 L 37.6875 50.9375 L 38.3125 50 L 38.9375 48.8125 L 39.375 47.625 Z M 39.5 47.3125 "/>
<path style=" stroke:none;fill-rule:nonzero;fill:rgb(99.215686%,99.215686%,98.823529%);fill-opacity:1;" d="M 54.1875 24.9375 L 55.3125 25 L 56.3125 25.25 L 57.3125 25.75 L 57.9375 26.25 L 58.5625 26.875 L 59 27.5625 L 59.375 28.375 L 59.5625 29.125 L 59.625 29.8125 L 59.5625 31.125 L 59.3125 31.875 L 58.8125 32.75 L 58.375 33.3125 L 57.75 34 L 56.8125 34.6875 L 55.5 35.5625 L 54.6875 36.1875 L 54.0625 36.6875 L 53.1875 37.4375 L 52.1875 38.375 L 51.75 38.875 L 51.0625 39.6875 L 50.3125 40.875 L 49.9375 41.75 L 49.875 41.75 L 49.9375 41.25 L 50.4375 39.75 L 51.0625 38.4375 L 51.75 37.3125 L 52.5 36.3125 L 53.25 35.5 L 54.0625 34.6875 L 54.9375 34 L 55.625 33.4375 L 56.25 32.75 L 56.8125 31.875 L 57.125 31.1875 L 57.3125 30.4375 L 57.3125 29.375 L 57.125 28.625 L 56.75 27.875 L 56.1875 27.25 L 55.6875 26.875 L 54.9375 26.5625 L 54.3125 26.4375 L 53 26.4375 L 51.9375 26.6875 L 51.3125 26.9375 L 50.625 27.375 L 49.9375 27.9375 L 49.375 28.625 L 49.125 28.875 L 49.1875 28.375 L 49.5 27.625 L 49.9375 26.875 L 50.5 26.25 L 51.25 25.6875 L 52.25 25.25 L 53.375 25 Z M 54.1875 24.9375 "/>
<path style=" stroke:none;fill-rule:nonzero;fill:rgb(98.823529%,98.823529%,98.431373%);fill-opacity:1;" d="M 53.5625 46.5625 L 53.625 46.75 L 52 54.375 L 51.9375 54.6875 L 53 53.875 L 54 53.0625 L 54.875 52.3125 L 55.875 51.3125 L 56.6875 50.25 L 57.3125 49.0625 L 57.5625 48.25 L 55.0625 48.3125 L 54.6875 48.5625 L 54.4375 49 L 54.1875 49.5 L 53.6875 49.5 L 54.3125 48 L 54.75 47 L 54.875 46.875 L 58.9375 46.875 L 58.8125 47.4375 L 58.1875 48.8125 L 57.5 49.9375 L 57 50.625 L 56.5 51.25 L 55.75 52.125 L 54.875 53 L 54.375 53.4375 L 53.5625 54.125 L 52.1875 55.25 L 51.3125 56 L 50.5625 56.6875 L 50.4375 56.6875 L 50.5 56.125 L 50.9375 53.9375 L 51.6875 49.6875 L 51.8125 49.0625 L 51.8125 48.75 L 51.25 49.6875 L 50.5 51.125 L 49.875 52.1875 L 49.125 53.3125 L 48.25 54.5 L 47.375 55.4375 L 46.6875 56.125 L 45.9375 56.6875 L 45.8125 56.625 L 46.5 54.8125 L 47.0625 53 L 47.5 51.1875 L 47.6875 50 L 47.6875 48.5625 L 47.5 48.125 L 47.4375 48.0625 L 47.0625 48.0625 L 46.5625 48.375 L 46.4375 48.375 L 46.3125 48.1875 L 46.375 47.9375 L 47.3125 47.3125 L 48.0625 46.75 L 48.3125 46.6875 L 48.6875 46.9375 L 49.0625 47.4375 L 49.25 48.125 L 49.25 49 L 49.0625 50.25 L 48.6875 51.8125 L 48.125 53.625 L 48.0625 53.9375 L 48.625 53.0625 L 49.375 51.6875 L 50.1875 50.25 L 50.9375 49.125 L 51.625 48.25 L 52.375 47.4375 L 53.25 46.75 Z M 53.5625 46.5625 "/>
<path style=" stroke:none;fill-rule:nonzero;fill:rgb(0.392157%,0.392157%,0%);fill-opacity:1;" d="M 72.25 29.125 L 73.375 29.125 L 74.25 29.25 L 75.0625 29.5 L 76.125 30.0625 L 76.75 30.5625 L 76.75 30.6875 L 77 30.8125 L 77.5625 31.5 L 77.9375 32.1875 L 78.25 33 L 78.375 33.75 L 78.375 41 L 78.25 42.625 L 78 43.375 L 77.75 43.875 L 77.375 44.4375 L 76.9375 45 L 76.25 45.5625 L 75.5 46 L 74.8125 46.25 L 74 46.4375 L 72.6875 46.4375 L 71.875 46.25 L 71.3125 46.0625 L 70.5625 45.6875 L 70.6875 45.625 L 71 45.75 L 71.875 45.875 L 73.5625 45.875 L 74.625 45.6875 L 75.3125 45.4375 L 75.8125 45.125 L 75.9375 45.125 L 75.9375 45 L 76.25 44.75 L 76.375 44.75 L 76.5 44.5 L 76.6875 44.3125 L 76.75 44.125 L 76.875 44.125 L 77 43.75 L 77.25 43.25 L 77.5 42.375 L 77.5625 41.9375 L 77.5625 34 L 77.3125 33.125 L 76.9375 32.4375 L 76.75 32.25 L 76.75 32.125 L 76.5625 32.0625 L 76.5625 31.9375 L 76.3125 31.8125 L 75.75 31.375 L 75.3125 31.125 L 75 30.9375 L 73.9375 30.625 L 73.5 30.5625 L 72.4375 30.5625 L 71.5 30.75 L 70.75 31.0625 L 70 31.5625 L 69.6875 31.8125 L 69.25 32.3125 L 68.8125 32.9375 L 68.4375 33.8125 L 68.25 34.6875 L 68.25 36 L 68.5 37 L 68.875 37.8125 L 69.3125 38.5 L 70.0625 39.25 L 70.75 39.6875 L 70.9375 39.875 L 70.625 39.8125 L 69.875 39.4375 L 69.25 39 L 69.25 38.875 L 69 38.75 L 68.5 38.25 L 67.9375 37.4375 L 67.625 36.8125 L 67.3125 35.875 L 67.25 35.375 L 67.25 34 L 67.375 33.3125 L 67.625 32.5625 L 68 31.8125 L 68.5 31.125 L 69.25 30.375 L 70.0625 29.8125 L 70.9375 29.4375 L 71.8125 29.1875 Z M 72.25 29.125 "/>
<path style=" stroke:none;fill-rule:nonzero;fill:rgb(99.215686%,99.215686%,98.823529%);fill-opacity:1;" d="M 46 24.5625 L 47.3125 24.6875 L 48.3125 25 L 49.25 25.4375 L 49.25 25.5 L 47.8125 25.5 L 46.75 25.625 L 45.75 25.9375 L 44.9375 26.375 L 44.3125 26.875 L 43.8125 27.375 L 43.25 28.25 L 42.9375 28.9375 L 42.6875 29.875 L 42.625 30.375 L 42.625 31.125 L 42.8125 32.1875 L 43.1875 33.25 L 43.6875 34.125 L 44.25 34.8125 L 44.6875 35.3125 L 45.5 35.9375 L 46.3125 36.625 L 47.25 37.5625 L 47.875 38.375 L 48.4375 39.3125 L 48.75 40.0625 L 48.875 40.5 L 48.875 40.875 L 48.75 40.6875 L 48.25 39.75 L 47.5625 38.9375 L 47.3125 38.6875 L 47.3125 38.5625 L 47.0625 38.4375 L 46.625 38 L 45.75 37.3125 L 44.6875 36.5625 L 43.75 35.9375 L 43 35.25 L 42.5625 34.8125 L 41.9375 33.9375 L 41.4375 33 L 41.0625 31.875 L 40.875 30.875 L 40.875 29.5 L 41.125 28.375 L 41.4375 27.5625 L 42 26.6875 L 42.5625 26.0625 L 43.1875 25.5 L 44.0625 25 L 44.9375 24.6875 Z M 46 24.5625 "/>
<path style=" stroke:none;fill-rule:nonzero;fill:rgb(59.607843%,0.392157%,0%);fill-opacity:1;" d="M 49.6875 57.875 L 50.8125 57.875 L 51.4375 58.125 L 51.8125 58.4375 L 52 58.75 L 52.0625 59 L 52.0625 59.8125 L 51.8125 60.5 L 51.4375 61 L 51 61.4375 L 50.375 61.8125 L 49.5625 62.125 L 48.8125 62.3125 L 48.5 62.3125 L 48.625 62 L 49 61.1875 L 49.125 60.75 L 47.125 60.6875 L 47.125 60.9375 L 47.75 61 L 48 61.1875 L 48 61.8125 L 47.6875 62.4375 L 45.1875 62.4375 L 43.625 62.3125 L 43.75 62.0625 L 44.25 61.5625 L 44.3125 61.4375 L 44.4375 61.4375 L 44.4375 61.3125 L 44.5625 61.3125 L 44.6875 61.0625 L 45.1875 60.5625 L 45.6875 60.125 L 46.4375 59.5 L 47.5 58.75 L 48.5 58.25 L 49.4375 57.9375 Z M 49.6875 57.875 "/>
<path style=" stroke:none;fill-rule:nonzero;fill:rgb(99.215686%,99.215686%,98.823529%);fill-opacity:1;" d="M 64.125 46.5 L 65 46.5 L 65.375 46.6875 L 65.5625 46.9375 L 65.5625 47.5 L 65.1875 48.25 L 64.5 49.0625 L 63.625 49.75 L 62.625 50.25 L 61.4375 50.6875 L 61.125 50.75 L 60.625 50.75 L 60.25 50.5625 L 60 50.125 L 61.1875 50.125 L 61.875 50 L 62.6875 49.6875 L 63.5 49.125 L 63.875 48.625 L 64 48.3125 L 64 47.75 L 63.8125 47.5625 L 63.6875 47.5 L 62.875 47.5 L 62.0625 47.8125 L 61.375 48.3125 L 61.125 48.4375 L 61 48.6875 L 60.5 49.1875 L 59.75 50.25 L 59.1875 51.3125 L 58.6875 52.625 L 58.4375 53.625 L 58.375 54.0625 L 58.375 54.8125 L 58.5625 55.375 L 58.9375 55.625 L 59.125 55.6875 L 59.625 55.6875 L 60.4375 55.4375 L 61.125 55 L 61.875 54.3125 L 62.625 53.375 L 63.1875 52.4375 L 63.6875 51.375 L 63.875 51.4375 L 63.9375 51.6875 L 63.9375 52.1875 L 63.75 52.8125 L 63.375 53.4375 L 62.8125 54.125 L 62.0625 54.875 L 61.375 55.4375 L 60.5 56.0625 L 59.5 56.5625 L 58.9375 56.75 L 57.8125 56.75 L 57.3125 56.4375 L 57.0625 56.125 L 56.9375 55.6875 L 56.9375 54.4375 L 57.125 53.4375 L 57.4375 52.5 L 58 51.3125 L 58.5625 50.4375 L 59.125 49.6875 L 59.8125 48.9375 L 60.5625 48.25 L 61.4375 47.625 L 62.5 47 L 63.5 46.625 Z M 64.125 46.5 "/>
<path style=" stroke:none;fill-rule:nonzero;fill:rgb(99.215686%,99.215686%,98.823529%);fill-opacity:1;" d="M 71.3125 46.5 L 72.1875 46.5 L 72.5625 46.6875 L 72.75 46.9375 L 72.75 47.5 L 72.375 48.25 L 71.875 48.875 L 71.1875 49.5 L 70.25 50.0625 L 69.0625 50.5625 L 68.3125 50.75 L 67.8125 50.75 L 67.4375 50.5625 L 67.25 50.25 L 67.25 50.125 L 68.375 50.125 L 69.0625 50 L 69.875 49.6875 L 70.5625 49.25 L 71 48.75 L 71.1875 48.375 L 71.25 47.9375 L 71.0625 47.5625 L 70.875 47.5 L 70.0625 47.5 L 69.25 47.8125 L 68.5 48.375 L 67.75 49.125 L 67 50.1875 L 66.5 51.0625 L 66 52.25 L 65.6875 53.3125 L 65.5625 54.3125 L 65.625 55.0625 L 65.875 55.5 L 66.3125 55.6875 L 66.8125 55.6875 L 67.625 55.4375 L 68.3125 55 L 68.9375 54.4375 L 69.5 53.8125 L 70.125 52.875 L 70.8125 51.5625 L 70.9375 51.3125 L 71.0625 51.4375 L 71.125 51.625 L 71.125 52.25 L 70.875 52.9375 L 70.4375 53.625 L 69.875 54.25 L 69.1875 54.9375 L 68.5 55.5 L 67.6875 56.0625 L 66.75 56.5625 L 66.125 56.75 L 65 56.75 L 64.5625 56.5 L 64.3125 56.1875 L 64.125 55.6875 L 64.125 54.4375 L 64.3125 53.5 L 64.6875 52.375 L 65.1875 51.375 L 65.75 50.4375 L 66.375 49.625 L 67.125 48.8125 L 67.75 48.25 L 68.8125 47.5 L 70.125 46.8125 L 70.9375 46.5625 Z M 71.3125 46.5 "/>
<path style=" stroke:none;fill-rule:nonzero;fill:rgb(98.823529%,98.823529%,98.431373%);fill-opacity:1;" d="M 61.6875 57.5 L 61.75 57.5 L 61.75 58.1875 L 61.375 59.5 L 60.75 61.1875 L 59.6875 63.75 L 59 65.4375 L 59.3125 65.125 L 59.9375 64.4375 L 60.375 63.9375 L 61 63.25 L 61.5 62.8125 L 62.125 62.3125 L 62.625 62 L 62.9375 61.875 L 63.5625 61.875 L 63.6875 62.0625 L 63.6875 62.5 L 63.3125 63.4375 L 62.625 64.9375 L 61.875 66.75 L 61.75 67.125 L 61.75 67.5625 L 62.3125 67.4375 L 62.625 67.3125 L 62.75 67.5625 L 61.5625 68.125 L 60.75 68.4375 L 60.5625 68.4375 L 60.5625 68 L 60.9375 66.75 L 61.5625 65.1875 L 62.125 63.9375 L 62.4375 63.1875 L 62.4375 62.8125 L 62.0625 62.875 L 61.375 63.375 L 60.8125 63.875 L 60.375 64.375 L 59.625 65.3125 L 58.875 66.4375 L 58.1875 67.625 L 57.9375 68.0625 L 57.125 68.3125 L 56.9375 68.25 L 58.0625 65.5 L 59.0625 62.9375 L 59.9375 60.75 L 60.375 59.5625 L 60.5 59.125 L 60.5625 58.5625 L 59.75 58.625 L 59.75 58.375 L 60.9375 57.875 Z M 61.6875 57.5 "/>
<path style=" stroke:none;fill-rule:nonzero;fill:rgb(98.823529%,98.823529%,98.431373%);fill-opacity:1;" d="M 77.0625 44.75 L 77.1875 44.8125 L 76.6875 46 L 75.75 46.5 L 76.25 46.3125 L 76.5625 46.25 L 76.4375 46.625 L 78.0625 46.625 L 78 46.9375 L 76.25 46.9375 L 76.125 47.3125 L 75.1875 49.4375 L 74.125 51.875 L 73.25 53.875 L 72.9375 54.875 L 72.9375 55.3125 L 73.125 55.5625 L 73.6875 55.5625 L 74.5 55.25 L 75.0625 54.875 L 75.25 54.9375 L 75.3125 55.25 L 74.4375 55.8125 L 73.5 56.25 L 72.625 56.5 L 71.75 56.5 L 71.375 56.3125 L 71.25 56.0625 L 71.25 55.5625 L 71.75 54.0625 L 72.875 51.5 L 73.9375 49.0625 L 74.75 47.125 L 74.8125 46.9375 L 73.3125 46.9375 L 73.4375 46.625 L 73.625 46.5625 L 74.4375 46.5 L 75 46.25 L 75.3125 46 L 76.0625 45.625 L 76.625 45.1875 L 76.75 45.1875 L 76.8125 45 Z M 77.0625 44.75 "/>
<path style=" stroke:none;fill-rule:nonzero;fill:rgb(99.215686%,99.215686%,98.823529%);fill-opacity:1;" d="M 53.8125 61.625 L 53.875 61.625 L 53.875 62.125 L 53.5625 63.125 L 53.0625 64.375 L 52.125 66.5 L 51.875 67.1875 L 51.875 67.5 L 52.625 67.4375 L 52.6875 67.5 L 52.875 67.125 L 53.1875 67.4375 L 53.5625 67.75 L 53.875 67.875 L 54.375 67.875 L 55 67.625 L 55.4375 67.125 L 55.5625 66.5 L 55.375 65.875 L 54.875 64.75 L 54.8125 64.125 L 55 63.5 L 55.4375 62.875 L 56.0625 62.25 L 56.75 61.875 L 57.4375 61.75 L 58.0625 61.75 L 58.3125 61.8125 L 58.1875 62.125 L 57.5625 63.1875 L 57.375 63.4375 L 57.125 63.375 L 57.3125 62.625 L 57.25 62.5 L 57.0625 62.4375 L 56.5625 62.4375 L 56.0625 62.6875 L 55.75 63.0625 L 55.6875 63.25 L 55.6875 63.9375 L 56.25 65.1875 L 56.3125 65.4375 L 56.3125 66.375 L 56.0625 66.9375 L 55.6875 67.4375 L 55.0625 68 L 54.4375 68.375 L 54.0625 68.5 L 53.1875 68.5 L 52.8125 68.25 L 52.6875 68 L 52.6875 67.6875 L 51.125 68.375 L 50.6875 68.5 L 50.8125 67.5 L 51.1875 66.375 L 52 64.5625 L 52.625 63 L 52.6875 62.5625 L 51.75 62.75 L 51.6875 62.5 Z M 53.8125 61.625 "/>
<path style=" stroke:none;fill-rule:nonzero;fill:rgb(99.215686%,99.215686%,98.823529%);fill-opacity:1;" d="M 31.9375 71.25 L 68.0625 71.25 L 68.0625 71.5625 L 31.9375 71.5625 Z M 31.9375 71.25 "/>
<path style=" stroke:none;fill-rule:nonzero;fill:rgb(59.607843%,0.392157%,0%);fill-opacity:1;" d="M 43.3125 62.9375 L 45 63 L 47.375 63 L 47.25 63.3125 L 46.625 64.25 L 45.9375 65.125 L 45.25 65.9375 L 44.6875 66.5625 L 43.75 67.5 L 43.6875 67.5 L 43.625 65.5 L 43.4375 63.75 Z M 43.3125 62.9375 "/>
<path style=" stroke:none;fill-rule:nonzero;fill:rgb(99.215686%,99.215686%,98.823529%);fill-opacity:1;" d="M 67.875 61.75 L 68.75 61.75 L 69 61.9375 L 69.0625 62.3125 L 68.6875 63.0625 L 68.125 63.625 L 67.3125 64.125 L 66.3125 64.5 L 65.75 64.5625 L 65.5 64.4375 L 65.375 64.125 L 66.1875 64.125 L 66.9375 63.9375 L 67.625 63.5 L 67.875 63.1875 L 68 62.875 L 68 62.5625 L 67.6875 62.375 L 67.125 62.4375 L 66.5 62.75 L 65.875 63.3125 L 65.375 63.9375 L 64.8125 64.9375 L 64.5 65.75 L 64.3125 66.5625 L 64.3125 67.375 L 64.5 67.6875 L 64.8125 67.8125 L 65.375 67.75 L 66 67.4375 L 66.625 66.875 L 67.25 66 L 67.8125 64.9375 L 67.9375 65.0625 L 67.9375 65.625 L 67.75 66.0625 L 67.375 66.625 L 66.6875 67.3125 L 65.8125 68 L 64.9375 68.4375 L 64.1875 68.5625 L 63.6875 68.4375 L 63.375 68.0625 L 63.3125 67.875 L 63.3125 66.875 L 63.5625 65.9375 L 64 64.9375 L 64.625 64 L 65.3125 63.25 L 65.875 62.75 L 66.875 62.125 L 67.6875 61.8125 Z M 67.875 61.75 "/>
<path style=" stroke:none;fill-rule:nonzero;fill:rgb(99.215686%,99.215686%,98.823529%);fill-opacity:1;" d="M 72.0625 61.75 L 72.6875 61.75 L 72.9375 61.875 L 72.3125 62.9375 L 72 63.4375 L 71.75 63.375 L 71.8125 63.0625 L 71.875 62.5625 L 71.6875 62.4375 L 71.1875 62.4375 L 70.75 62.625 L 70.5 62.75 L 70.375 63 L 70.25 63.3125 L 70.25 63.8125 L 70.875 65.3125 L 70.9375 65.625 L 70.9375 66.25 L 70.6875 66.875 L 70.4375 67.25 L 70.125 67.5625 L 69.5625 68.0625 L 68.6875 68.5 L 68.125 68.5625 L 67.5625 68.375 L 67.3125 68.0625 L 67.3125 67.375 L 67.4375 67.125 L 67.5625 67.125 L 67.9375 67.625 L 68.25 67.8125 L 68.5 67.875 L 68.9375 67.875 L 69.5 67.6875 L 69.9375 67.3125 L 70.125 66.875 L 70.125 66.3125 L 69.8125 65.5625 L 69.4375 64.6875 L 69.4375 63.9375 L 69.6875 63.375 L 70.1875 62.6875 L 70.75 62.1875 L 71.375 61.875 Z M 72.0625 61.75 "/>
<path style=" stroke:none;fill-rule:nonzero;fill:rgb(0.392157%,0.392157%,0.392157%);fill-opacity:1;" d="M 61.5 39.875 L 62 39.9375 L 62.0625 40.0625 L 62.0625 42.375 L 61.8125 42.75 L 61.625 42.875 L 60.75 42.875 L 60.75 44.5625 L 60.375 44.5625 L 60.375 39.9375 Z M 61.5 39.875 "/>
<path style=" stroke:none;fill-rule:nonzero;fill:rgb(0.392157%,0.392157%,0.392157%);fill-opacity:1;" d="M 72.1875 39.875 L 72.5625 39.9375 L 72.6875 40.125 L 72.6875 42.6875 L 72.5625 42.875 L 71.125 42.875 L 71 42.75 L 71 40.0625 L 71.0625 39.9375 Z M 72.1875 39.875 "/>
<path style=" stroke:none;fill-rule:nonzero;fill:rgb(0.392157%,0.392157%,0.392157%);fill-opacity:1;" d="M 66.375 38.125 L 68 38.125 L 68.125 38.25 L 68.125 39.5 L 67.75 39.5 L 67.75 38.4375 L 66.6875 38.5 L 66.6875 42.5 L 67.75 42.5625 L 67.75 40.8125 L 67.25 40.8125 L 67.25 40.5 L 68.125 40.5 L 68.125 42.75 L 68 42.875 L 66.375 42.875 L 66.25 42.75 L 66.25 38.25 Z M 66.375 38.125 "/>
<path style=" stroke:none;fill-rule:nonzero;fill:rgb(0.392157%,0.392157%,0.392157%);fill-opacity:1;" d="M 59.25 39.875 L 59.5 39.9375 L 59.5625 40.0625 L 59.5625 42.875 L 58 42.875 L 57.875 42.625 L 57.875 41.4375 L 58.0625 41.1875 L 59.25 41.1875 L 59.25 40.25 L 58.3125 40.25 L 58.3125 40.75 L 57.9375 40.75 L 57.9375 40.125 L 58.0625 39.9375 Z M 59.25 39.875 "/>
<path style=" stroke:none;fill-rule:nonzero;fill:rgb(0.392157%,0.392157%,0.392157%);fill-opacity:1;" d="M 73.25 39.9375 L 73.5625 39.9375 L 73.625 40 L 73.8125 41.0625 L 74 42 L 74.1875 41.25 L 74.375 40.1875 L 74.4375 39.9375 L 74.8125 39.9375 L 75.0625 41.1875 L 75.1875 41.875 L 75.25 42.0625 L 75.4375 41 L 75.625 40 L 75.6875 39.9375 L 76 39.9375 L 75.875 40.75 L 75.625 42 L 75.4375 42.8125 L 75.375 42.875 L 75.0625 42.875 L 74.875 42.1875 L 74.6875 41.125 L 74.625 40.8125 L 74.5 41.25 L 74.1875 42.875 L 73.8125 42.875 L 73.625 42.1875 L 73.375 40.75 L 73.25 40.25 Z M 73.25 39.9375 "/>
<path style=" stroke:none;fill-rule:nonzero;fill:rgb(0.392157%,0.392157%,0.392157%);fill-opacity:1;" d="M 62.5 38.125 L 62.875 38.125 L 62.9375 40 L 63.0625 39.9375 L 64.125 39.9375 L 64.1875 40 L 64.1875 42.875 L 63.8125 42.875 L 63.8125 40.25 L 62.9375 40.375 L 62.875 42.875 L 62.5 42.875 Z M 62.5 38.125 "/>
<path style=" stroke:none;fill-rule:nonzero;fill:rgb(99.215686%,99.215686%,98.823529%);fill-opacity:1;" d="M 48.125 74.1875 L 49.3125 74.1875 L 49.625 74.375 L 49.6875 74.4375 L 49.6875 75 L 49.4375 75.3125 L 49.3125 75.375 L 49.6875 75.9375 L 49.875 76.25 L 50 76.3125 L 50 76.4375 L 49.5625 76.4375 L 49.0625 75.5625 L 48.625 75.4375 L 48.6875 76.3125 L 48.8125 76.3125 L 48.8125 76.4375 L 48.1875 76.4375 L 48.125 76.3125 L 48.25 76.25 L 48.25 74.3125 Z M 48.125 74.1875 "/>
<path style=" stroke:none;fill-rule:nonzero;fill:rgb(99.215686%,99.215686%,98.823529%);fill-opacity:1;" d="M 43.375 74.1875 L 44.5625 74.1875 L 44.875 74.4375 L 44.9375 74.875 L 44.75 75.1875 L 44.5 75.375 L 44.75 75.6875 L 45 76.125 L 45 76.25 L 45.25 76.375 L 45.1875 76.4375 L 44.8125 76.4375 L 44.5625 76.125 L 44.25 75.5625 L 43.8125 75.4375 L 43.875 76.125 L 44 76.4375 L 43.375 76.4375 L 43.5 76.125 L 43.5 74.4375 Z M 43.375 74.1875 "/>
<path style=" stroke:none;fill-rule:nonzero;fill:rgb(99.215686%,99.215686%,98.823529%);fill-opacity:1;" d="M 33.375 74.1875 L 34.0625 74.1875 L 33.9375 74.5 L 34.25 75.75 L 34.3125 75.8125 L 34.75 74.3125 L 34.8125 74.1875 L 35.125 74.1875 L 35.5 75.8125 L 35.625 75.625 L 35.9375 74.5625 L 35.875 74.3125 L 35.8125 74.1875 L 36.4375 74.1875 L 36.1875 74.6875 L 35.625 76.375 L 35.375 76.4375 L 35.1875 75.875 L 34.875 74.75 L 34.4375 76.25 L 34.3125 76.4375 L 34.0625 76.375 L 33.5 74.375 Z M 33.375 74.1875 "/>
<path style=" stroke:none;fill-rule:nonzero;fill:rgb(59.607843%,0.392157%,0%);fill-opacity:1;" d="M 71.375 40.25 L 72.3125 40.25 L 72.3125 42.5625 L 71.375 42.5625 Z M 71.375 40.25 "/>
<path style=" stroke:none;fill-rule:nonzero;fill:rgb(59.607843%,0.392157%,0%);fill-opacity:1;" d="M 60.75 40.25 L 61.625 40.25 L 61.625 42.4375 L 61.5625 42.5 L 60.75 42.5 Z M 60.75 40.25 "/>
<path style=" stroke:none;fill-rule:nonzero;fill:rgb(0.392157%,0.392157%,0.392157%);fill-opacity:1;" d="M 70.1875 39.875 L 70.4375 40.0625 L 70.4375 40.875 L 70.0625 40.875 L 70.0625 40.25 L 69.8125 40.3125 L 69.3125 40.3125 L 69.3125 42.75 L 69.25 42.875 L 68.9375 42.875 L 68.875 42.8125 L 68.875 39.9375 L 69.5 39.9375 Z M 70.1875 39.875 "/>
<path style=" stroke:none;fill-rule:nonzero;fill:rgb(99.215686%,99.215686%,98.823529%);fill-opacity:1;" d="M 42 74.125 L 42.3125 74.1875 L 42.875 76.0625 L 43.0625 76.3125 L 43.0625 76.4375 L 42.375 76.4375 L 42.3125 76.3125 L 42.5 76.3125 L 42.4375 75.6875 L 41.625 75.6875 L 41.5625 76.3125 L 41.75 76.375 L 41.6875 76.4375 L 41.0625 76.4375 L 41.1875 76.1875 L 41.6875 74.9375 Z M 42 74.125 "/>
<path style=" stroke:none;fill-rule:nonzero;fill:rgb(99.215686%,99.215686%,98.823529%);fill-opacity:1;" d="M 54.75 74.125 L 55.0625 74.1875 L 55.6875 76.1875 L 55.8125 76.375 L 55.75 76.4375 L 55.125 76.4375 L 55.0625 76.3125 L 55.25 76.3125 L 55.1875 75.6875 L 54.375 75.6875 L 54.375 76.25 L 54.5 76.375 L 54.4375 76.4375 L 53.8125 76.4375 L 53.9375 76.1875 L 54.4375 74.9375 Z M 54.75 74.125 "/>
<path style=" stroke:none;fill-rule:nonzero;fill:rgb(0.392157%,0.392157%,0.392157%);fill-opacity:1;" d="M 55.8125 39.9375 L 57.25 39.9375 L 57.375 40.0625 L 57.375 40.875 L 57 40.875 L 57 40.25 L 56.75 40.3125 L 56.1875 40.3125 L 56.1875 42.875 L 55.8125 42.875 Z M 55.8125 39.9375 "/>
<path style=" stroke:none;fill-rule:nonzero;fill:rgb(99.215686%,99.215686%,98.823529%);fill-opacity:1;" d="M 61.1875 74.1875 L 61.6875 74.1875 L 62.0625 74.75 L 62.625 75.6875 L 62.625 74.375 L 62.5 74.1875 L 63.0625 74.1875 L 62.9375 74.375 L 62.875 76.375 L 62.625 76.375 L 61.625 74.6875 L 61.625 76.3125 L 61.75 76.375 L 61.6875 76.4375 L 61.1875 76.4375 L 61.1875 76.3125 L 61.3125 76.3125 L 61.3125 74.375 Z M 61.1875 74.1875 "/>
<path style=" stroke:none;fill-rule:nonzero;fill:rgb(99.215686%,99.215686%,98.823529%);fill-opacity:1;" d="M 59.6875 74.125 L 60.3125 74.1875 L 60.625 74.5 L 60.75 74.75 L 60.75 75.75 L 60.5625 76.125 L 60.25 76.375 L 60.125 76.4375 L 59.5625 76.4375 L 59.1875 76.1875 L 59 75.8125 L 59 74.8125 L 59.25 74.375 L 59.5 74.1875 Z M 59.625 74.3125 L 59.375 74.625 L 59.3125 74.8125 L 59.3125 75.75 L 59.5 76.125 L 59.75 76.3125 L 60.125 76.25 L 60.375 75.9375 L 60.4375 75.75 L 60.4375 74.875 L 60.1875 74.375 L 60.125 74.3125 Z M 59.625 74.3125 "/>
<path style=" stroke:none;fill-rule:nonzero;fill:rgb(99.215686%,99.215686%,98.823529%);fill-opacity:1;" d="M 45.4375 74.1875 L 46.9375 74.1875 L 46.9375 74.6875 L 46.75 74.625 L 46.6875 74.375 L 45.9375 74.3125 L 45.9375 75.1875 L 46.375 75.125 L 46.5 74.9375 L 46.6875 74.9375 L 46.6875 75.4375 L 46.625 75.5625 L 46.5 75.5625 L 46.375 75.375 L 45.9375 75.3125 L 45.9375 76.25 L 46.625 76.1875 L 46.8125 75.875 L 46.9375 75.875 L 46.9375 76.375 L 46.875 76.4375 L 45.4375 76.4375 L 45.4375 76.3125 L 45.5625 76.3125 L 45.5625 74.375 Z M 45.4375 74.1875 "/>
<path style=" stroke:none;fill-rule:nonzero;fill:rgb(99.215686%,99.215686%,98.823529%);fill-opacity:1;" d="M 36.6875 74.1875 L 38.1875 74.1875 L 38.1875 74.6875 L 38 74.6875 L 37.8125 74.375 L 37.1875 74.375 L 37.1875 75.1875 L 37.625 75.125 L 37.75 74.9375 L 37.875 74.9375 L 37.875 75.5625 L 37.6875 75.5 L 37.625 75.375 L 37.1875 75.3125 L 37.1875 76.1875 L 37.875 76.1875 L 38.0625 75.875 L 38.1875 75.875 L 38.1875 76.375 L 38.125 76.4375 L 36.6875 76.4375 L 36.6875 76.3125 L 36.8125 76.3125 L 36.8125 74.375 Z M 36.6875 74.1875 "/>
<path style=" stroke:none;fill-rule:nonzero;fill:rgb(99.215686%,99.215686%,98.823529%);fill-opacity:1;" d="M 50.25 74.1875 L 51.75 74.1875 L 51.75 74.6875 L 51.5625 74.6875 L 51.375 74.375 L 50.75 74.375 L 50.75 75.125 L 51.1875 75.125 L 51.3125 74.9375 L 51.4375 74.9375 L 51.4375 75.5625 L 51.25 75.5 L 51.1875 75.375 L 50.75 75.375 L 50.6875 76.25 L 51.5 76.1875 L 51.5625 75.875 L 51.75 75.875 L 51.75 76.375 L 51.6875 76.4375 L 50.25 76.4375 L 50.375 76.1875 L 50.375 74.4375 Z M 50.25 74.1875 "/>
<path style=" stroke:none;fill-rule:nonzero;fill:rgb(99.215686%,99.215686%,98.823529%);fill-opacity:1;" d="M 63.9375 74.125 L 64.5 74.125 L 64.75 74.25 L 64.75 74.625 L 64.5 74.5625 L 64.375 74.375 L 63.875 74.375 L 63.8125 74.8125 L 63.875 75 L 64.1875 75.125 L 64.5625 75.375 L 64.75 75.625 L 64.75 76.0625 L 64.5 76.375 L 64.375 76.4375 L 63.6875 76.4375 L 63.4375 76.375 L 63.4375 75.875 L 63.625 75.875 L 63.75 76.1875 L 64.1875 76.25 L 64.375 76.125 L 64.375 75.5625 L 64.0625 75.4375 L 63.6875 75.1875 L 63.5 75 L 63.4375 74.625 L 63.625 74.3125 Z M 63.9375 74.125 "/>
<path style=" stroke:none;fill-rule:nonzero;fill:rgb(99.215686%,99.215686%,98.823529%);fill-opacity:1;" d="M 55.75 74.1875 L 57.5625 74.1875 L 57.5625 74.75 L 57.375 74.75 L 57.25 74.375 L 56.8125 74.3125 L 56.875 76.25 L 57 76.3125 L 57 76.4375 L 56.3125 76.4375 L 56.3125 76.3125 L 56.4375 76.3125 L 56.5 74.3125 L 56.0625 74.4375 L 55.9375 74.75 L 55.75 74.75 Z M 55.75 74.1875 "/>
<path style=" stroke:none;fill-rule:nonzero;fill:rgb(99.215686%,99.215686%,98.823529%);fill-opacity:1;" d="M 40.0625 74.125 L 40.625 74.125 L 40.875 74.1875 L 40.875 74.625 L 40.625 74.5625 L 40.5 74.375 L 40.0625 74.375 L 39.8125 74.625 L 39.75 74.8125 L 39.75 75.8125 L 39.875 76.1875 L 40.375 76.25 L 40.625 76 L 40.6875 75.875 L 40.875 75.875 L 40.875 76.375 L 40.6875 76.4375 L 39.875 76.4375 L 39.5 76.125 L 39.375 75.875 L 39.3125 75.1875 L 39.4375 74.625 L 39.75 74.25 Z M 40.0625 74.125 "/>
<path style=" stroke:none;fill-rule:nonzero;fill:rgb(59.607843%,0.392157%,0%);fill-opacity:1;" d="M 58.3125 41.4375 L 59.1875 41.4375 L 59.25 41.5 L 59.25 42.5 L 59.1875 42.5625 L 58.25 42.5625 L 58.25 41.5 Z M 58.3125 41.4375 "/>
<path style=" stroke:none;fill-rule:nonzero;fill:rgb(99.215686%,99.215686%,98.823529%);fill-opacity:1;" d="M 52.1875 74.1875 L 52.875 74.1875 L 52.75 74.3125 L 52.6875 76.25 L 53.3125 76.1875 L 53.5 75.75 L 53.6875 75.75 L 53.6875 76.3125 L 53.625 76.4375 L 52.1875 76.4375 L 52.1875 76.3125 L 52.3125 76.25 L 52.3125 74.375 Z M 52.1875 74.1875 "/>
<path style=" stroke:none;fill-rule:nonzero;fill:rgb(0.392157%,0.392157%,0.392157%);fill-opacity:1;" d="M 65.125 39.9375 L 65.4375 39.9375 L 65.4375 42.875 L 65.125 42.875 Z M 65.125 39.9375 "/>
<path style=" stroke:none;fill-rule:nonzero;fill:rgb(99.215686%,99.215686%,98.823529%);fill-opacity:1;" d="M 57.875 74.1875 L 58.5625 74.1875 L 58.4375 74.3125 L 58.4375 76.25 L 58.5625 76.375 L 58.5 76.4375 L 57.875 76.4375 L 57.875 76.3125 L 58 76.3125 L 58 74.375 Z M 57.875 74.1875 "/>
<path style=" stroke:none;fill-rule:nonzero;fill:rgb(59.607843%,0.392157%,0%);fill-opacity:1;" d="M 43.8125 74.3125 L 44.25 74.3125 L 44.5625 74.5 L 44.5625 75.0625 L 44.375 75.25 L 43.875 75.3125 L 43.8125 75.25 Z M 43.8125 74.3125 "/>
<path style=" stroke:none;fill-rule:nonzero;fill:rgb(99.215686%,99.215686%,98.823529%);fill-opacity:1;" d="M 54.25 59.5625 L 54.625 59.625 L 54.6875 59.6875 L 54.6875 60.1875 L 54.375 60.5 L 54 60.5 L 53.8125 60.3125 L 53.8125 59.9375 L 54.0625 59.625 Z M 54.25 59.5625 "/>
<path style=" stroke:none;fill-rule:nonzero;fill:rgb(59.607843%,0.392157%,0%);fill-opacity:1;" d="M 48.625 74.3125 L 49.0625 74.3125 L 49.3125 74.4375 L 49.375 74.5625 L 49.375 75.0625 L 49.1875 75.25 L 48.625 75.3125 Z M 48.625 74.3125 "/>
<path style=" stroke:none;fill-rule:nonzero;fill:rgb(59.607843%,0.392157%,0%);fill-opacity:1;" d="M 54.8125 74.5 L 54.9375 74.75 L 55.125 75.5 L 54.5 75.5625 L 54.4375 75.4375 L 54.75 74.5625 Z M 54.8125 74.5 "/>
<path style=" stroke:none;fill-rule:nonzero;fill:rgb(59.607843%,0.392157%,0%);fill-opacity:1;" d="M 42.0625 74.5 L 42.1875 74.75 L 42.375 75.5 L 42.25 75.5625 L 41.6875 75.5 L 42 74.5625 Z M 42.0625 74.5 "/>
<path style=" stroke:none;fill-rule:nonzero;fill:rgb(99.215686%,99.215686%,98.823529%);fill-opacity:1;" d="M 75.9375 44.4375 L 76.5625 44.4375 L 76.375 44.75 L 76.0625 45 L 75.9375 45 L 75.9375 45.125 L 75.6875 45.1875 L 75.75 44.875 Z M 75.9375 44.4375 "/>
<path style=" stroke:none;fill-rule:nonzero;fill:rgb(0.392157%,0.392157%,0.392157%);fill-opacity:1;" d="M 65.125 38.75 L 65.4375 38.75 L 65.4375 39.25 L 65.125 39.25 Z M 65.125 38.75 "/>
</g>
</svg>
